<?xml version="1.0" encoding="UTF-8" standalone="no"?>
<svg
   stroke="currentColor"
   stroke-width="0"
   viewBox="0 0 391.69201 448"
   height="175"
   width="174.8625"
   fill="#0b66c2"
   version="1.1"
   id="svg1"
   sodipodi:docname="linkedin.svg"
   inkscape:version="1.3.1 (9b9bdc1480, 2023-11-25, custom)"
   xmlns:inkscape="http://www.inkscape.org/namespaces/inkscape"
   xmlns:sodipodi="http://sodipodi.sourceforge.net/DTD/sodipodi-0.dtd"
   xmlns="http://www.w3.org/2000/svg"
   xmlns:svg="http://www.w3.org/2000/svg">
  <defs
     id="defs1" />
  <sodipodi:namedview
     id="namedview1"
     pagecolor="#ffffff"
     bordercolor="#000000"
     borderopacity="0.25"
     inkscape:showpageshadow="2"
     inkscape:pageopacity="0.0"
     inkscape:pagecheckerboard="0"
     inkscape:deskcolor="#d1d1d1"
     inkscape:zoom="5.88"
     inkscape:cx="74.829932"
     inkscape:cy="74.829932"
     inkscape:window-width="2560"
     inkscape:window-height="1376"
     inkscape:window-x="0"
     inkscape:window-y="248"
     inkscape:window-maximized="1"
     inkscape:current-layer="svg1" />
  <path
     d="M 387.67315,0 H 3.8749367 C -13.711236,0 -28,14.5 -28,32.3 v 383.4 c 0,17.8 14.288764,32.3 31.8749367,32.3 H 387.67315 c 17.58618,0 31.97486,-14.5 31.97486,-32.3 V 32.3 C 419.64801,14.5 405.25933,0 387.67315,0 Z M 107.29361,384 H 40.945787 V 170.2 H 107.39354 V 384 Z M 74.119703,141 c -21.283264,0 -38.469752,-17.3 -38.469752,-38.5 0,-21.2 17.186488,-38.5 38.469752,-38.5 21.183343,0 38.469757,17.3 38.469757,38.5 0,21.3 -17.186492,38.5 -38.469757,38.5 z M 355.99807,384 H 289.65023 V 280 c 0,-24.8 -0.49961,-56.7 -34.4729,-56.7 -34.57281,0 -39.86864,27 -39.86864,54.9 V 384 H 148.96085 V 170.2 h 63.64995 v 29.2 h 0.89931 c 8.89299,-16.8 30.57595,-34.5 62.85057,-34.5 67.14721,0 79.63739,44.3 79.63739,101.9 z"
     id="path1"
     style="stroke-width:0" />
</svg>
